<svg width="29" height="29" viewBox="0 0 29 29" fill="none" xmlns="http://www.w3.org/2000/svg">
<path d="M21.1666 15.1712C21.1553 13.2397 22.0304 11.7841 23.7976 10.7107C22.8092 9.29473 21.3139 8.51592 19.3428 8.36582C17.4765 8.21855 15.4346 9.45332 14.6869 9.45332C13.8968 9.45332 12.0899 8.4168 10.6683 8.4168C7.73428 8.46211 4.61621 10.7561 4.61621 15.4232C4.61621 16.8024 4.86826 18.227 5.37236 19.6939C6.04639 21.6254 8.47627 26.3577 11.0109 26.2812C12.3363 26.2501 13.2737 25.341 14.9984 25.341C16.6722 25.341 17.5388 26.2812 19.0171 26.2812C21.5744 26.2444 23.7721 21.9426 24.4121 20.0055C20.9825 18.3884 21.1666 15.2703 21.1666 15.1712ZM20.8664 22.7327C20.4614 23.2963 20.0536 23.7409 19.6798 24.027C19.3824 24.2535 19.153 24.3498 19.0001 24.3555C18.7452 24.3526 18.4988 24.2903 18.0174 24.1063C17.9834 24.0921 17.9466 24.0779 17.8984 24.0609L17.7738 24.0128C17.2811 23.823 16.9865 23.7211 16.6099 23.622C16.0831 23.486 15.5592 23.4124 14.9984 23.4124C14.4264 23.4124 13.8883 23.4832 13.353 23.6163C12.9594 23.7154 12.628 23.8259 12.1437 24.0071C12.1239 24.0156 11.9144 24.0949 11.8549 24.1176C11.7558 24.1544 11.6793 24.1827 11.6085 24.2082C11.314 24.3102 11.1271 24.3526 10.96 24.3555C10.9401 24.3555 10.9231 24.3526 10.909 24.3498C10.8778 24.3441 10.8382 24.3328 10.7929 24.313C10.6654 24.262 10.5125 24.1686 10.3397 24.0354C9.94326 23.7268 9.50713 23.2425 9.0625 22.6223C8.28369 21.5291 7.54736 20.0791 7.19336 19.0624C6.75723 17.7937 6.54199 16.5787 6.54199 15.4204C6.54199 13.7155 7.04609 12.4185 7.9127 11.5377C8.65752 10.7844 9.66006 10.3624 10.6824 10.3397C10.8495 10.3426 11.0931 10.3822 11.4018 10.4672C11.6453 10.5323 11.9115 10.6201 12.2712 10.7476C12.3788 10.7872 12.7498 10.9203 12.7951 10.9373C13.0132 11.0166 13.1774 11.0732 13.3389 11.1242C13.8543 11.2885 14.2536 11.3791 14.6869 11.3791C15.1259 11.3791 15.5025 11.2856 16.0378 11.1016C16.2389 11.0336 16.9695 10.7617 17.0998 10.7164C17.8248 10.4587 18.3601 10.3199 18.8217 10.2859C18.9576 10.2746 19.0794 10.2746 19.1955 10.2831C19.8384 10.3341 20.3878 10.4615 20.8551 10.6739C19.7902 11.903 19.2408 13.4068 19.2437 15.1599C19.2352 15.5762 19.2691 16.0576 19.3881 16.6269C19.5693 17.4906 19.9148 18.3459 20.4614 19.1474C20.8777 19.7562 21.3932 20.3057 22.0105 20.7843C21.6849 21.4555 21.2855 22.1493 20.8664 22.7327ZM18.1901 6.5335C19.626 4.82861 19.4957 3.27666 19.4532 2.71875C18.1845 2.79238 16.7175 3.58252 15.882 4.55391C14.9616 5.59609 14.4207 6.88467 14.5368 8.3375C15.9075 8.44229 17.1593 7.73711 18.1901 6.5335Z" fill="white"/>
</svg>
