<svg width="32" height="32" viewBox="0 0 32 32" fill="none" xmlns="http://www.w3.org/2000/svg">
<g clip-path="url(#clip0_43_208)">
<path d="M3.19997 1.06666L3.73757 0.145062C3.57546 0.0504695 3.39127 0.000322842 3.20359 -0.000314287C3.01591 -0.000951415 2.83138 0.0479436 2.66863 0.141434C2.50589 0.234924 2.3707 0.369699 2.27671 0.53215C2.18271 0.694602 2.13325 0.878978 2.1333 1.06666H3.19997ZM3.19997 30.9333H2.1333C2.13325 31.121 2.18271 31.3054 2.27671 31.4678C2.3707 31.6303 2.50589 31.7651 2.66863 31.8586C2.83138 31.952 3.01591 32.0009 3.20359 32.0003C3.39127 31.9997 3.57546 31.9495 3.73757 31.8549L3.19997 30.9333ZM28.8 16L29.3376 16.9216C29.4987 16.8277 29.6324 16.6932 29.7253 16.5315C29.8183 16.3698 29.8672 16.1865 29.8672 16C29.8672 15.8135 29.8183 15.6302 29.7253 15.4685C29.6324 15.3068 29.4987 15.1723 29.3376 15.0784L28.8 16ZM2.1333 1.06666V30.9333H4.26663V1.06666H2.1333ZM3.73757 31.8549L29.3376 16.9216L28.2624 15.0784L2.66237 30.0117L3.73757 31.8549ZM29.3376 15.0784L3.73757 0.145062L2.66237 1.98826L28.2624 16.9216L29.3376 15.0784ZM3.90183 27.4688L20.9685 12.5355L19.5648 10.9312L2.4981 25.8645L3.90183 27.4688ZM2.4981 6.13546L19.5648 21.0688L20.9685 19.4645L3.90183 4.5312L2.4981 6.13546Z" fill="white"/>
</g>
<defs>
<clipPath id="clip0_43_208">
<rect width="32" height="32" fill="white"/>
</clipPath>
</defs>
</svg>
