<svg width="28" height="28" viewBox="0 0 28 28" fill="none" xmlns="http://www.w3.org/2000/svg">
<path d="M14.4202 9.65297C12.4734 9.65297 10.8847 11.2417 10.8847 13.1885C10.8847 15.1353 12.4734 16.724 14.4202 16.724C16.367 16.724 17.9558 15.1353 17.9558 13.1885C17.9558 11.2417 16.367 9.65297 14.4202 9.65297ZM25.0242 13.1885C25.0242 11.7244 25.0374 10.2736 24.9552 8.81219C24.873 7.11471 24.4857 5.6082 23.2445 4.36692C22.0005 3.12298 20.4967 2.7384 18.7992 2.65617C17.3351 2.57395 15.8843 2.58721 14.4229 2.58721C12.9588 2.58721 11.508 2.57395 10.0466 2.65617C8.34908 2.7384 6.84257 3.12563 5.60129 4.36692C4.35736 5.61085 3.97277 7.11471 3.89055 8.81219C3.80833 10.2763 3.82159 11.7271 3.82159 13.1885C3.82159 14.6499 3.80833 16.1034 3.89055 17.5648C3.97277 19.2623 4.36001 20.7688 5.60129 22.0101C6.84522 23.254 8.34908 23.6386 10.0466 23.7208C11.5106 23.803 12.9615 23.7898 14.4229 23.7898C15.887 23.7898 17.3378 23.803 18.7992 23.7208C20.4967 23.6386 22.0032 23.2514 23.2445 22.0101C24.4884 20.7662 24.873 19.2623 24.9552 17.5648C25.0401 16.1034 25.0242 14.6526 25.0242 13.1885ZM14.4202 18.6284C11.4099 18.6284 8.98033 16.1989 8.98033 13.1885C8.98033 10.1781 11.4099 7.74861 14.4202 7.74861C17.4306 7.74861 19.8601 10.1781 19.8601 13.1885C19.8601 16.1989 17.4306 18.6284 14.4202 18.6284ZM20.0829 8.79627C19.38 8.79627 18.8125 8.22868 18.8125 7.52582C18.8125 6.82296 19.38 6.25536 20.0829 6.25536C20.7858 6.25536 21.3534 6.82296 21.3534 7.52582C21.3536 7.69272 21.3209 7.85801 21.2571 8.01225C21.1933 8.16648 21.0997 8.30662 20.9817 8.42463C20.8637 8.54265 20.7236 8.63622 20.5693 8.69999C20.4151 8.76377 20.2498 8.79648 20.0829 8.79627Z" fill="#D5D5D5"/>
</svg>
